<?xml version="1.0" encoding="utf-8"?>
<!-- Generator: Adobe Illustrator 18.0.0, SVG Export Plug-In . SVG Version: 6.00 Build 0)  -->
<!DOCTYPE svg PUBLIC "-//W3C//DTD SVG 1.1//EN" "http://www.w3.org/Graphics/SVG/1.1/DTD/svg11.dtd">
<svg version="1.1" id="Lager_1" xmlns="http://www.w3.org/2000/svg" xmlns:xlink="http://www.w3.org/1999/xlink" x="0px" y="0px"
	 viewBox="0 0 441.5 109" enable-background="new 0 0 441.5 109" xml:space="preserve">
<g>
	<path d="M3.4,89.9l2.1-0.9c1.8,4.2,5.7,8.1,11.9,8.1c6.8,0,13.4-4.8,20.3-17.1C47.9,61.6,56.1,30.9,56.9,9.4
		c3.9-2.5,8.1-3.9,10-3.9C68.1,5.5,69,6,69,7.9c0,1.2-0.3,5.3-0.7,10c-0.7,7.4-1.4,17.3-1.4,26c0,13.8,2,21.2,6.1,21.2
		c4.8,0,11.7-10,18.6-31.8C93.8,26.6,96,18.1,98.2,9c3.9-2.2,7.7-3.5,9.5-3.5c1.4,0,2.2,0.7,2.2,2c0,1.6-1,5.9-2.6,13.8
		c-4.2,21.4-8.2,46.1-8.2,60.8c0,8.3,1.3,18.6,6.5,18.6c4.9,0,12-9.1,16.8-37l3.1,0.4c-5.5,32.6-14.8,42.8-23.7,42.8
		c-9.6,0-13.7-11.8-13.7-28.4c0-11.2,1.8-23,3.8-34.4h-0.3C86.2,58.7,78.4,72.3,69,72.3S56.9,58.7,57.3,41.4H57
		C54.3,54.7,50.4,69,45.3,80.3c-6.5,14.5-15.4,25.1-27,25.1C9.4,105.5,4.4,99,3.4,89.9z"/>
	<path d="M124,51.8c2.2-1.4,6.1-3.1,8.2-3.1c1.6,0,2.3,0.9,2.3,2.9c0,1.8-0.8,6.1-1.8,11.2c-1.4,7.2-3,16.1-3,23.3
		c0,7.9,2,13.7,6,13.7c5.2,0,11.3-9.4,16.1-36.1l3.1,0.4c-5.9,32.6-13.7,40.8-22.1,40.8c-7.2,0-13.2-5.7-13.2-19.1
		C119.7,76.3,122.7,63.7,124,51.8z M127.9,29.4c0-3.8,3-6.8,6.8-6.8s6.8,3,6.8,6.8s-3,6.9-6.8,6.9S127.9,33.2,127.9,29.4z"/>
	<path d="M184.7,58.9c0-2.3-1-3.9-3.4-3.9c-6,0-12,11.5-14.7,18.9c-3.5,9.4-5.2,19.8-5.7,28.6c-2.6,1.4-5.2,2.2-6.5,2.2
		c-4.6,0-5.3-9.5-5.3-15.6c0-11.8,3.1-24.7,4.3-37.2c2.2-1.4,6.3-3.1,8.3-3.1c1.6,0,2.3,1,2.3,2.9c0,2.9-2.2,10.9-3.5,19.7
		c-0.8,5.1-1.4,11.5-1.4,16.1h0.4c0.9-4.8,2.3-11.2,4.7-16.9c4.8-12.1,11.7-21.1,20.4-22.3c4.8,1,9,3.6,11.7,7.4
		c-1.8,8.9-4.9,18.8-4.9,29.2c0,9,2.3,15.1,6.5,15.1c3.6,0,8.9-4.9,13-19.1l2.9,0.9c-5.5,18.9-12.9,23.3-18.8,23.3
		c-7,0-13.8-5.7-13.8-20.2C181.1,74,184.7,63,184.7,58.9z"/>
	<path d="M234.1,80.1c0-12.2,3.5-31.6,7.9-47.7c1-3.8,4.6-16,8.1-23.8c3.3-2.6,7.9-5.1,9.9-5.1c0.5,0,0.9,0.1,1.6,0.5
		c5.1,3.4,7.6,13.2,7.6,21.4c0,15.1-9,34.5-24,39.2c-0.5,5.3-0.9,10.5-0.9,15c0,14.6,4.2,20.4,8.7,20.4c5.5,0,13.3-8.3,18.2-36.3
		l3.1,0.4c-4.3,25.3-12.6,40.9-24.5,40.9C243.1,105,234.1,99.6,234.1,80.1z M262.5,29.6c0-6.4-1.4-13.4-5.3-18
		c-2.7,7.8-4.7,15.1-5.9,19.9c-1.8,7.4-4.2,18.9-5.6,29.2C256.5,56.8,262.5,42.7,262.5,29.6z"/>
	<path d="M272.8,51.8c2.2-1.4,6.1-3.1,8.2-3.1c1.6,0,2.3,0.9,2.3,2.9c0,1.8-0.8,6.1-1.8,11.2c-1.4,7.2-3,16.1-3,23.3
		c0,7.9,2,13.7,6,13.7c5.2,0,11.3-9.4,16.1-36.1l3.1,0.4c-5.9,32.6-13.7,40.8-22.1,40.8c-7.2,0-13.2-5.7-13.2-19.1
		C268.5,76.3,271.5,63.7,272.8,51.8z M276.7,29.4c0-3.8,3-6.8,6.8-6.8s6.8,3,6.8,6.8s-3,6.9-6.8,6.9S276.7,33.2,276.7,29.4z"/>
	<path d="M305.1,91.3c0,5.6,2.6,9.2,8.1,9.2c5.1,0,9.2-3,9.2-7.6c0-4.2-3.4-7.3-10.2-12.5C305,74.7,300,71.2,300,64.8
		c0-10.5,12.9-16.5,22-16.5c7.4,0,12.8,4,12.8,9.9c0,4.6-3.1,7.3-7.8,7.4c0.1-0.8,0.1-1.3,0.1-2c0-6.3-3.4-10.7-9.5-10.7
		c-5.2,0-9.5,3.1-9.5,7.4c0,3.8,3.4,6.9,11.3,13.2c6.6,5.2,11.5,8.5,11.5,14.6c0,9.8-11.7,16.8-21,16.8c-5.3,0-11.1-2.3-11.1-7.7
		C298.9,94.1,300.7,91.4,305.1,91.3z"/>
	<path d="M346.5,53.1l-6.8,0.4c-0.4-0.7-0.5-1.6-0.5-2.3c0-0.7,0.1-1.4,0.3-1.8l7.7-0.4c1.6-9.4,2.5-15.8,3.5-21.6
		c2.3-1.6,6.5-3.3,8.6-3.3c1.6,0,2.2,0.8,2.2,2.2c0,2.6-2.3,12.9-4,22.1l16-1.2c0.3,0.4,0.5,1.3,0.5,2.1s-0.3,1.7-0.8,2.6l-16.5,0.7
		c-1.7,10-2.9,19.7-2.9,27.5c0,13.9,3.6,19.9,8.3,19.9c5.9,0,14.2-9.5,18.8-36.3l3.1,0.4c-6.1,36.5-18.1,40.9-24.7,40.9
		c-7,0-16-5.1-16-24C343.3,73.4,344.7,63.4,346.5,53.1z"/>
	<path d="M373.7,84.4c0-9.6,3.6-19.1,9.6-25.9c5.1-5.7,12.2-9.9,21.4-9.9c5.3,0,10.2,1.4,15,4.2c-1.7,9-3.8,22.1-3.8,31.4
		c0,9.1,2.1,15.8,6.5,15.8c3.8,0,8.5-5.2,12.6-18.9l3,0.9c-5.5,18.5-12.4,23.2-18.5,23.2c-8.6,0-13.9-9.8-13.4-22h-0.3
		c-4.7,14.8-10.7,21.9-18,21.9C380.4,105,373.7,97.5,373.7,84.4z M402.1,83.6c2.3-7,5.2-18.5,6.9-26.8c-2.6-1.8-5.9-2.7-9-2.7
		c-3.8,0-7.4,1.3-10.3,4c-3.4,5.7-5.9,15.1-5.9,24.1c0,9.4,2.7,17.2,7.2,17.2C394.7,99.4,398.6,94.1,402.1,83.6z"/>
</g>
</svg>
